# xmcd
#
# Track frame offsets:
#	150
#	18118
#	42900
#	69580
#	102192
#	146706
#	184051
#	202761
#	226869
#	241447
#	254963
#	266452
#	277928
#	296758
#
# Disc length: 4171 seconds
#
# Revision: 0
# Processed by: cddbd v1.4PL0 Copyright (c) Steve Scherf et al.
# Submitted via: dBpowerAMP V4.0
#
DISCID=ca10490e
DTITLE=amir - mixbydjamir3000
DYEAR=1900
DGENRE=Ballad
TTITLE0=q
TTITLE1=w
TTITLE2=e
TTITLE3=r
TTITLE4=t
TTITLE5=y
TTITLE6=u
TTITLE7=i
TTITLE8=o
TTITLE9=a
TTITLE10=s
TTITLE11=d
TTITLE12=f
TTITLE13=g
EXTD=mixbydjamir3000
EXTT0=
EXTT1=
EXTT2=
EXTT3=
EXTT4=
EXTT5=
EXTT6=
EXTT7=
EXTT8=
EXTT9=
EXTT10=
EXTT11=
EXTT12=
EXTT13=
PLAYORDER=
